<?xml version="1.0" standalone="no"?>
<!DOCTYPE svg PUBLIC "-//W3C//DTD SVG 20010904//EN"
 "http://www.w3.org/TR/2001/REC-SVG-20010904/DTD/svg10.dtd">
<svg version="1.0" xmlns="http://www.w3.org/2000/svg"
 width="260.000000pt" height="260.000000pt" viewBox="0 0 260.000000 260.000000"
 preserveAspectRatio="xMidYMid meet">
<metadata>
Created by potrace 1.11, written by Peter Selinger 2001-2013
</metadata>
<g transform="translate(0.000000,260.000000) scale(0.100000,-0.100000)"
fill="#000000" stroke="none">
<path d="M0 1300 l0 -1300 1300 0 1300 0 0 1300 0 1300 -1300 0 -1300 0 0
-1300z m2490 0 l0 -1190 -1190 0 -1190 0 0 1190 0 1190 1190 0 1190 0 0 -1190z"/>
<path d="M1185 1812 c-28 -10 -73 -30 -100 -46 -69 -40 -211 -185 -273 -279
-29 -43 -52 -76 -52 -73 0 3 36 87 80 187 44 100 80 186 80 191 0 4 -69 8
-152 8 l-153 -1 -158 -487 c-87 -268 -158 -490 -158 -495 1 -4 69 -6 152 -5
l151 3 68 205 c73 223 123 340 192 447 109 168 227 235 294 168 22 -23 24 -30
18 -73 -9 -60 -52 -201 -146 -477 -41 -121 -78 -232 -82 -247 l-6 -28 153 0
153 0 52 158 c130 385 316 662 447 662 22 0 49 -6 60 -14 31 -22 14 -100 -80
-366 -80 -224 -87 -250 -83 -304 4 -56 7 -62 51 -102 88 -80 226 -86 371 -16
90 43 193 123 225 175 47 76 10 91 -58 22 -54 -55 -114 -80 -176 -72 -83 9
-108 57 -80 154 9 32 50 137 90 233 95 229 118 303 110 358 -19 129 -201 171
-374 86 -94 -46 -225 -173 -324 -313 -37 -52 -67 -91 -67 -88 0 4 19 53 41
109 76 190 63 283 -46 320 -64 22 -157 22 -220 0z"/>
</g>
</svg>
